<svg width="36" height="24" viewBox="0 0 36 24" fill="none" xmlns="http://www.w3.org/2000/svg">
<g clip-path="url(#clip0_532_16570)">
<path d="M0 0H36V24.0003H0V0Z" fill="white"/>
<path d="M20.25 -0.000244141H15.75V9.74971H0V14.2497H15.75V23.9997H20.25V14.2497H36V9.74971H20.25V-0.000244141Z" fill="#D80027"/>
<path d="M27.6881 16.1736L36.0001 20.7914V16.1736H27.6881ZM21.9131 16.1736L36.0001 23.9996V21.7866L25.8966 16.1736H21.9131ZM32.2478 23.9996L21.9131 18.2576V23.9996H32.2478Z" fill="#0052B4"/>
<path d="M21.9131 16.1736L36.0001 23.9996V21.7866L25.8966 16.1736H21.9131Z" fill="white"/>
<path d="M21.9131 16.1736L36.0001 23.9996V21.7866L25.8966 16.1736H21.9131Z" fill="#D80027"/>
<path d="M6.3521 16.1735L0 19.7024V16.1735H6.3521ZM14.087 17.1687V23.9996H1.79234L14.087 17.1687Z" fill="#0052B4"/>
<path d="M10.1034 16.1736L0 21.7866V23.9996L14.087 16.1736H10.1034Z" fill="#D80027"/>
<path d="M8.31199 7.82582L0 3.20797V7.82582H8.31199ZM14.087 7.82582L0 -0.000244141V2.21277L10.1034 7.82582H14.087ZM3.7523 -0.000244141L14.087 5.74176V-0.000244141H3.7523Z" fill="#0052B4"/>
<path d="M14.087 7.82582L0 -0.000244141V2.21277L10.1034 7.82582H14.087Z" fill="white"/>
<path d="M14.087 7.82582L0 -0.000244141V2.21277L10.1034 7.82582H14.087Z" fill="#D80027"/>
<path d="M29.648 7.82601L36.0001 4.29703V7.82601H29.648ZM21.9131 6.83081V-0.00012207H34.2077L21.9131 6.83081Z" fill="#0052B4"/>
<path d="M25.8966 7.82582L36.0001 2.21277V-0.000244141L21.9131 7.82582H25.8966Z" fill="#D80027"/>
</g>
<defs>
<clipPath id="clip0_532_16570">
<rect width="36" height="24" fill="white"/>
</clipPath>
</defs>
</svg>
