<svg width="24" height="25" viewBox="0 0 24 25" fill="none" xmlns="http://www.w3.org/2000/svg">
<path d="M15 12.3457C15 13.1414 14.6839 13.9044 14.1213 14.467C13.5587 15.0296 12.7956 15.3457 12 15.3457C11.2044 15.3457 10.4413 15.0296 9.87868 14.467C9.31607 13.9044 9 13.1414 9 12.3457C9 11.5501 9.31607 10.787 9.87868 10.2244C10.4413 9.66177 11.2044 9.3457 12 9.3457C12.7956 9.3457 13.5587 9.66177 14.1213 10.2244C14.6839 10.787 15 11.5501 15 12.3457Z" stroke="#9E9E9E" stroke-width="1.5" stroke-linecap="round" stroke-linejoin="round"/>
<path d="M2 12.3457C3.6 8.2487 7.336 5.3457 12 5.3457C16.664 5.3457 20.4 8.2487 22 12.3457C20.4 16.4427 16.664 19.3457 12 19.3457C7.336 19.3457 3.6 16.4427 2 12.3457Z" stroke="#9E9E9E" stroke-width="1.5" stroke-linecap="round" stroke-linejoin="round"/>
</svg>
