<svg width="24" height="25" viewBox="0 0 24 25" fill="none" xmlns="http://www.w3.org/2000/svg">
<path d="M19.5 4.0957H4.5C3.25736 4.0957 2.25 5.10306 2.25 6.3457V19.8457C2.25 21.0883 3.25736 22.0957 4.5 22.0957H19.5C20.7426 22.0957 21.75 21.0883 21.75 19.8457V6.3457C21.75 5.10306 20.7426 4.0957 19.5 4.0957Z" stroke="#9E9E9E" stroke-width="1.5" stroke-linejoin="round"/>
<path d="M13.875 12.3457C14.4963 12.3457 15 11.842 15 11.2207C15 10.5994 14.4963 10.0957 13.875 10.0957C13.2537 10.0957 12.75 10.5994 12.75 11.2207C12.75 11.842 13.2537 12.3457 13.875 12.3457Z" fill="#9E9E9E"/>
<path d="M17.625 12.3457C18.2463 12.3457 18.75 11.842 18.75 11.2207C18.75 10.5994 18.2463 10.0957 17.625 10.0957C17.0037 10.0957 16.5 10.5994 16.5 11.2207C16.5 11.842 17.0037 12.3457 17.625 12.3457Z" fill="#9E9E9E"/>
<path d="M13.875 16.0957C14.4963 16.0957 15 15.592 15 14.9707C15 14.3494 14.4963 13.8457 13.875 13.8457C13.2537 13.8457 12.75 14.3494 12.75 14.9707C12.75 15.592 13.2537 16.0957 13.875 16.0957Z" fill="#9E9E9E"/>
<path d="M17.625 16.0957C18.2463 16.0957 18.75 15.592 18.75 14.9707C18.75 14.3494 18.2463 13.8457 17.625 13.8457C17.0037 13.8457 16.5 14.3494 16.5 14.9707C16.5 15.592 17.0037 16.0957 17.625 16.0957Z" fill="#9E9E9E"/>
<path d="M6.375 16.0957C6.99632 16.0957 7.5 15.592 7.5 14.9707C7.5 14.3494 6.99632 13.8457 6.375 13.8457C5.75368 13.8457 5.25 14.3494 5.25 14.9707C5.25 15.592 5.75368 16.0957 6.375 16.0957Z" fill="#9E9E9E"/>
<path d="M10.125 16.0957C10.7463 16.0957 11.25 15.592 11.25 14.9707C11.25 14.3494 10.7463 13.8457 10.125 13.8457C9.50368 13.8457 9 14.3494 9 14.9707C9 15.592 9.50368 16.0957 10.125 16.0957Z" fill="#9E9E9E"/>
<path d="M6.375 19.8457C6.99632 19.8457 7.5 19.342 7.5 18.7207C7.5 18.0994 6.99632 17.5957 6.375 17.5957C5.75368 17.5957 5.25 18.0994 5.25 18.7207C5.25 19.342 5.75368 19.8457 6.375 19.8457Z" fill="#9E9E9E"/>
<path d="M10.125 19.8457C10.7463 19.8457 11.25 19.342 11.25 18.7207C11.25 18.0994 10.7463 17.5957 10.125 17.5957C9.50368 17.5957 9 18.0994 9 18.7207C9 19.342 9.50368 19.8457 10.125 19.8457Z" fill="#9E9E9E"/>
<path d="M13.875 19.8457C14.4963 19.8457 15 19.342 15 18.7207C15 18.0994 14.4963 17.5957 13.875 17.5957C13.2537 17.5957 12.75 18.0994 12.75 18.7207C12.75 19.342 13.2537 19.8457 13.875 19.8457Z" fill="#9E9E9E"/>
<path d="M6 2.5957V4.0957M18 2.5957V4.0957" stroke="#9E9E9E" stroke-width="1.5" stroke-linecap="round" stroke-linejoin="round"/>
<path d="M21.75 7.8457H2.25" stroke="#9E9E9E" stroke-width="1.5" stroke-linejoin="round"/>
</svg>
