<svg width="24" height="25" viewBox="0 0 24 25" fill="none" xmlns="http://www.w3.org/2000/svg">
<path d="M21 4.8457H3C2.60218 4.8457 2.22064 5.00374 1.93934 5.28504C1.65804 5.56635 1.5 5.94788 1.5 6.3457V18.3457C1.5 18.7435 1.65804 19.1251 1.93934 19.4064C2.22064 19.6877 2.60218 19.8457 3 19.8457H21C21.3978 19.8457 21.7794 19.6877 22.0607 19.4064C22.342 19.1251 22.5 18.7435 22.5 18.3457V6.3457C22.5 5.94788 22.342 5.56635 22.0607 5.28504C21.7794 5.00374 21.3978 4.8457 21 4.8457ZM19.35 6.3457L12 11.4307L4.65 6.3457H19.35ZM3 18.3457V7.0282L11.5725 12.9607C11.698 13.0478 11.8472 13.0945 12 13.0945C12.1528 13.0945 12.302 13.0478 12.4275 12.9607L21 7.0282V18.3457H3Z" fill="#F87614"/>
</svg>
